<svg xmlns="http://www.w3.org/2000/svg" viewBox="0 0 100 100">
  <path fill="#FF69B4" d="M50,0 C22.4,0 0,22.4 0,50 C0,77.6 22.4,100 50,100 C77.6,100 100,77.6 100,50 C100,22.4 77.6,0 50,0 Z M50,90 C27.9,90 10,72.1 10,50 C10,27.9 27.9,10 50,10 C72.1,10 90,27.9 90,50 C90,72.1 72.1,90 50,90 Z"/>
  <path fill="#FF1493" d="M50,20 C33.4,20 20,33.4 20,50 C20,66.6 33.4,80 50,80 C66.6,80 80,66.6 80,50 C80,33.4 66.6,20 50,20 Z M50,70 C39,70 30,61 30,50 C30,39 39,30 50,30 C61,30 70,39 70,50 C70,61 61,70 50,70 Z"/>
  <circle fill="#FF69B4" cx="50" cy="50" r="10"/>
</svg>

